<?xml version="1.0" encoding="UTF-8" standalone="no"?><!-- Generator: Gravit.io --><svg xmlns="http://www.w3.org/2000/svg" xmlns:xlink="http://www.w3.org/1999/xlink" style="isolation:isolate" viewBox="0 0 512 512" width="512pt" height="512pt"><clipPath id="_clipPath_CuFpBrEHFSchU5AFRPF0Ts4YIQMBgGvv"><rect x="0" y="0" width="512" height="512" transform="matrix(1,0,0,1,0,0)" fill="rgb(255,255,255)"/></clipPath><g clip-path="url(#_clipPath_CuFpBrEHFSchU5AFRPF0Ts4YIQMBgGvv)"><g><circle vector-effect="non-scaling-stroke" cx="256" cy="256" r="256" fill="rgb(203,213,224)"/><path d=" M 242.5 98 Q 304.238 95.762 327 132.5 Q 348.376 154.124 346 199.5 Q 339.902 237.402 315.5 257 Q 293.271 280.271 247.5 280 Q 209.478 275.522 190 252.5 Q 163.261 229.739 164 179.5 Q 170.098 139.098 196.5 119 Q 213.794 102.794 242.5 98 Z " fill="rgb(253,253,253)"/><path d=" M 202.5 321 Q 226.139 329.861 258.5 330 Q 285.391 327.891 307.5 321 Q 365.025 325.975 392 361.5 Q 400.714 370.786 406 383.5 L 380.5 410 Q 334.25 454.75 242.5 454 Q 150.406 445.094 107 387.5 L 104 382.5 Q 113.75 364.25 128.5 351 Q 154.281 324.781 202.5 321 Z " fill="rgb(253,253,253)"/><rect x="-92" y="-135" width="512" height="512" transform="matrix(1,0,0,1,0,0)" fill="none"/></g></g></svg>