<?xml version="1.0" encoding="UTF-8" standalone="no"?><!-- Generator: Gravit.io --><svg xmlns="http://www.w3.org/2000/svg" xmlns:xlink="http://www.w3.org/1999/xlink" style="isolation:isolate" viewBox="0 0 512 512" width="512pt" height="512pt"><path d=" M 43.857 142.714 L 255.857 27.714 L 461.857 141.714 L 459.857 369.714 L 258.857 482.714 L 48.857 372.714 L 43.857 142.714 Z " fill="rgb(0,0,0)"/><path d=" M 35.773 128.5 L 256 1 L 476.227 128.5 L 476.227 383.5 L 256 511 L 35.773 383.5 L 35.773 128.5 Z  M 82.136 151.682 L 82.136 360.318 L 256 453.045 L 429.864 360.318 L 429.864 151.682 L 256 58.955 L 82.136 151.682 Z " fill="rgb(205,220,57)"/><path d=" M 258.111 169.749 C 243.328 169.749 231.272 181.525 231.272 196 C 231.272 202.637 233.634 207.22 237.718 212.991 C 240.606 217.079 240.954 219.79 240.414 220.844 C 239.889 221.856 237.864 222.426 235.258 222.25 C 225.984 221.62 197.27 218.279 197.169 218.264 C 196.548 218.177 195.921 218.14 195.294 218.151 C 192.017 218.151 186.317 219.73 185.102 230.339 C 184.779 231.887 183.313 240.284 181.115 269.358 C 180.883 270.546 181.059 271.615 181.235 272.523 C 182.038 276.64 184.76 279.085 188.499 279.085 C 192.365 279.085 196.76 276.479 202.678 272.29 C 207.617 268.803 211.716 267.25 215.919 267.25 C 226.569 267.25 235.258 275.658 235.258 286 C 235.258 296.343 226.569 304.75 215.919 304.75 C 210.954 304.75 207.542 303.374 202.445 299.358 C 196.524 294.7 192.058 292.563 188.499 292.563 C 185.349 292.563 182.919 294.288 181.7 297.25 C 180.999 298.975 180.868 301.544 181.115 302.992 C 183.065 323.399 184.033 327.149 184.865 330.415 L 185.218 331.822 C 186.669 338.148 191.15 342.251 196.584 342.251 L 316.705 342.251 C 325.405 342.251 331 336.727 331 328.188 L 331 231.156 C 331 224.725 327.572 220.431 320.687 218.384 C 320.192 218.249 319.675 218.21 319.165 218.267 C 318.887 218.294 290.732 221.091 280.727 222.25 C 280.345 222.295 279.921 222.366 279.553 222.366 C 278.601 222.366 276.902 222.22 276.272 221.076 C 275.586 219.846 275.773 217.019 278.383 212.875 L 278.852 212.17 C 282.85 205.813 284.826 202.607 284.826 196 C 284.826 181.525 272.89 169.749 258.111 169.749 Z " fill="rgb(255,255,255)"/></svg>