<?xml version="1.0" standalone="no"?>
<!DOCTYPE svg PUBLIC "-//W3C//DTD SVG 20010904//EN"
 "http://www.w3.org/TR/2001/REC-SVG-20010904/DTD/svg10.dtd">
<svg version="1.0" xmlns="http://www.w3.org/2000/svg"
 width="512.000000pt" height="512.000000pt" viewBox="0 0 512.000000 512.000000"
 preserveAspectRatio="xMidYMid meet">
<metadata>
Created by potrace 1.11, written by Peter Selinger 2001-2013
</metadata>
<g transform="translate(0.000000,512.000000) scale(0.100000,-0.100000)"
fill="#000000" stroke="none">
<path d="M1688 4067 l-867 -462 0 -1045 0 -1045 869 -463 870 -463 870 463
869 463 0 1045 0 1045 -868 463 c-478 254 -870 462 -872 462 -2 0 -394 -209
-871 -463z m1029 -683 c91 -57 143 -161 129 -258 -4 -24 -23 -70 -43 -102 -19
-33 -36 -72 -37 -89 -1 -26 3 -30 29 -33 17 -2 115 6 219 17 177 19 192 19
224 4 19 -9 43 -30 53 -47 18 -29 19 -60 19 -549 0 -571 0 -569 -62 -607 -32
-19 -49 -20 -676 -20 l-644 0 -33 33 c-41 41 -51 77 -72 255 -17 141 -17 142
4 170 40 54 105 39 231 -53 67 -48 162 -41 229 18 86 75 86 199 0 274 -20 18
-56 37 -78 43 -67 18 -102 7 -233 -73 -71 -44 -107 -47 -143 -11 -25 25 -25
28 -19 117 13 178 37 360 53 399 27 69 44 72 260 48 292 -32 304 -29 257 52
-57 101 -68 132 -68 193 1 106 69 203 169 240 26 9 65 13 112 11 59 -2 81 -8
120 -32z"/>
</g>
</svg>
